<?xml version="1.0" encoding="utf-8"?>
<!-- Generator: Adobe Illustrator 16.0.0, SVG Export Plug-In . SVG Version: 6.00 Build 0)  -->
<!DOCTYPE svg PUBLIC "-//W3C//DTD SVG 1.1//EN" "http://www.w3.org/Graphics/SVG/1.1/DTD/svg11.dtd">
<svg version="1.1" id="Layer_1" xmlns="http://www.w3.org/2000/svg" xmlns:xlink="http://www.w3.org/1999/xlink" x="0px" y="0px"
	 width="59.042px" height="65.854px" viewBox="0 0 59.042 65.854" enable-background="new 0 0 59.042 65.854" xml:space="preserve">
<g>
	<rect x="17.784" y="26.082" fill="#FFFFFF" stroke="#000000" stroke-miterlimit="10" width="23.472" height="14.477"/>
	<rect x="27.328" y="41.003" fill="#FFFFFF" stroke="#000000" stroke-miterlimit="10" width="4.387" height="19.963"/>
	<rect x="41.256" y="23.673" fill="#FFFFFF" stroke="#000000" stroke-miterlimit="10" width="3.729" height="20.182"/>
	<rect x="14.056" y="23.673" fill="#FFFFFF" stroke="#000000" stroke-miterlimit="10" width="3.729" height="20.182"/>
	<path fill="none" stroke="#000000" stroke-miterlimit="10" d="M19.674,33.283c5.92,5.642,12.299,6.308,19.693,0.638
		C32.411,26.834,25.952,27.52,19.674,33.283z"/>
	<circle fill="#FFFFFF" stroke="#000000" stroke-miterlimit="10" cx="29.52" cy="33.321" r="4.152"/>
	<circle stroke="#000000" stroke-miterlimit="10" cx="29.521" cy="33.374" r="2.627"/>
	<circle fill="#FFFFFF" cx="30.757" cy="32.135" r="1.237"/>
	<g>
		<polygon fill="none" stroke="#000000" stroke-miterlimit="10" points="39.739,14.08 32.826,19.498 29.594,8.992 29.594,8.992 
			26.361,19.664 19.448,14.246 19.448,14.185 23.058,23.673 36.131,23.673 39.739,14.185 39.739,14.246 		"/>
		<circle fill="none" stroke="#000000" stroke-miterlimit="10" cx="29.594" cy="6.23" r="1.344"/>
		<circle fill="none" stroke="#000000" stroke-miterlimit="10" cx="19.046" cy="12.125" r="0.802"/>
		<circle fill="none" stroke="#000000" stroke-miterlimit="10" cx="39.969" cy="12.1" r="0.827"/>
	</g>
</g>
</svg>
