<?xml version="1.0" encoding="utf-8"?>
<!-- Generator: Adobe Illustrator 16.0.0, SVG Export Plug-In . SVG Version: 6.00 Build 0)  -->
<!DOCTYPE svg PUBLIC "-//W3C//DTD SVG 1.1//EN" "http://www.w3.org/Graphics/SVG/1.1/DTD/svg11.dtd">
<svg version="1.1" id="Layer_1" xmlns="http://www.w3.org/2000/svg" xmlns:xlink="http://www.w3.org/1999/xlink" x="0px" y="0px"
	 width="59.042px" height="65.854px" viewBox="0 0 59.042 65.854" enable-background="new 0 0 59.042 65.854" xml:space="preserve">
<g>
	<g>
		<circle fill="#FFFFFF" stroke="#000000" stroke-miterlimit="10" cx="29.521" cy="37.514" r="15.245"/>
		<polyline fill="none" stroke="#000000" stroke-miterlimit="10" points="16.242,54.39 29.522,60.858 42.8,54.39 		"/>
		<line fill="none" stroke="#000000" stroke-miterlimit="10" x1="16.242" y1="54.39" x2="19.506" y2="48.989"/>
		<line fill="none" stroke="#000000" stroke-miterlimit="10" x1="42.8" y1="54.39" x2="39.537" y2="48.989"/>
		<line fill="none" stroke="#000000" stroke-miterlimit="10" x1="29.521" y1="52.759" x2="29.522" y2="60.858"/>
		<circle fill="#FFFFFF" cx="30.83" cy="37.635" r="1.311"/>
	</g>
	<path fill="none" stroke="#000000" stroke-miterlimit="10" d="M19.746,38.857c5.92,5.642,12.298,6.308,19.693,0.638
		C32.482,32.409,26.023,33.094,19.746,38.857z"/>
	<circle fill="#FFFFFF" stroke="#000000" stroke-miterlimit="10" cx="29.592" cy="38.895" r="4.152"/>
	<circle stroke="#000000" stroke-miterlimit="10" cx="29.593" cy="38.948" r="2.628"/>
	<circle fill="#FFFFFF" cx="30.829" cy="37.709" r="1.237"/>
	<g>
		<polygon fill="#FFFFFF" stroke="#000000" stroke-miterlimit="10" points="39.739,14.188 32.826,19.606 29.593,9.1 29.593,9.1 
			26.361,19.772 19.448,14.354 19.448,14.293 23.057,23.782 36.13,23.782 39.739,14.293 39.739,14.354 		"/>
		<circle fill="#FFFFFF" stroke="#000000" stroke-miterlimit="10" cx="29.593" cy="6.338" r="1.344"/>
		<circle fill="#FFFFFF" stroke="#000000" stroke-miterlimit="10" cx="19.045" cy="12.234" r="0.802"/>
		<circle fill="#FFFFFF" stroke="#000000" stroke-miterlimit="10" cx="39.968" cy="12.208" r="0.827"/>
	</g>
</g>
</svg>
